<svg id="visual" viewBox="0 0 960 540" width="960" height="540" xmlns="http://www.w3.org/2000/svg" xmlns:xlink="http://www.w3.org/1999/xlink" version="1.1"><rect x="0" y="0" width="960" height="540" fill="#0b1230"></rect><path d="M0 387L22.8 389.5C45.7 392 91.3 397 137 387C182.7 377 228.3 352 274 350.2C319.7 348.3 365.3 369.7 411.2 378.3C457 387 503 383 548.8 380.8C594.7 378.7 640.3 378.3 686 374.7C731.7 371 777.3 364 823 361.5C868.7 359 914.3 361 937.2 362L960 363L960 541L937.2 541C914.3 541 868.7 541 823 541C777.3 541 731.7 541 686 541C640.3 541 594.7 541 548.8 541C503 541 457 541 411.2 541C365.3 541 319.7 541 274 541C228.3 541 182.7 541 137 541C91.3 541 45.7 541 22.8 541L0 541Z" fill="#6600ff"></path><path d="M0 377L22.8 377C45.7 377 91.3 377 137 383.2C182.7 389.3 228.3 401.7 274 403C319.7 404.3 365.3 394.7 411.2 391.7C457 388.7 503 392.3 548.8 387.7C594.7 383 640.3 370 686 371.2C731.7 372.3 777.3 387.7 823 397.5C868.7 407.3 914.3 411.7 937.2 413.8L960 416L960 541L937.2 541C914.3 541 868.7 541 823 541C777.3 541 731.7 541 686 541C640.3 541 594.7 541 548.8 541C503 541 457 541 411.2 541C365.3 541 319.7 541 274 541C228.3 541 182.7 541 137 541C91.3 541 45.7 541 22.8 541L0 541Z" fill="#3a1dc4"></path><path d="M0 441L22.8 442C45.7 443 91.3 445 137 446.8C182.7 448.7 228.3 450.3 274 449.2C319.7 448 365.3 444 411.2 438C457 432 503 424 548.8 427C594.7 430 640.3 444 686 443.7C731.7 443.3 777.3 428.7 823 423.5C868.7 418.3 914.3 422.7 937.2 424.8L960 427L960 541L937.2 541C914.3 541 868.7 541 823 541C777.3 541 731.7 541 686 541C640.3 541 594.7 541 548.8 541C503 541 457 541 411.2 541C365.3 541 319.7 541 274 541C228.3 541 182.7 541 137 541C91.3 541 45.7 541 22.8 541L0 541Z" fill="#1b1d89"></path><path d="M0 485L22.8 479.2C45.7 473.3 91.3 461.7 137 455.3C182.7 449 228.3 448 274 452.3C319.7 456.7 365.3 466.3 411.2 469.8C457 473.3 503 470.7 548.8 467.7C594.7 464.7 640.3 461.3 686 461.2C731.7 461 777.3 464 823 460.8C868.7 457.7 914.3 448.3 937.2 443.7L960 439L960 541L937.2 541C914.3 541 868.7 541 823 541C777.3 541 731.7 541 686 541C640.3 541 594.7 541 548.8 541C503 541 457 541 411.2 541C365.3 541 319.7 541 274 541C228.3 541 182.7 541 137 541C91.3 541 45.7 541 22.8 541L0 541Z" fill="#0f154f"></path><path d="M0 488L22.8 489.2C45.7 490.3 91.3 492.7 137 495.5C182.7 498.3 228.3 501.7 274 499.2C319.7 496.7 365.3 488.3 411.2 485.2C457 482 503 484 548.8 485.5C594.7 487 640.3 488 686 486.2C731.7 484.3 777.3 479.7 823 479.8C868.7 480 914.3 485 937.2 487.5L960 490L960 541L937.2 541C914.3 541 868.7 541 823 541C777.3 541 731.7 541 686 541C640.3 541 594.7 541 548.8 541C503 541 457 541 411.2 541C365.3 541 319.7 541 274 541C228.3 541 182.7 541 137 541C91.3 541 45.7 541 22.8 541L0 541Z" fill="#07021a"></path></svg>